PathFileType	4	(X/Y/Z)	7_coords_data.trc
DataRate	CameraRate	NumFrames	NumMarkers	Units	OrigDataRate	OrigDataStartFrame	OrigNumFrames
30.0	30.0	5	21	m	30.0	42	62
Frame#	Time	THUMB_TIP	THUMB_IP	THUMB_MCP	THUMB_CMC	INDEX_TIP	INDEX_DIP	INDEX_PIP	INDEX_MCP	MIDDLE_TIP	MIDDLE_DIP	MIDDLE_PIP	MIDDLE_MCP	RING_TIP	RING_DIP	RING_PIP	RING_MCP	PINKY_TIP	PINKY_DIP	PINKY_PIP	PINKY_MCP	WRIST
X1	Y1	Z1	X2	Y2	Z2	X3	Y3	Z3	X4	Y4	Z4	X5	Y5	Z5	X6	Y6	Z6	X7	Y7	Z7	X8	Y8	Z8	X9	Y9	Z9	X10	Y10	Z10	X11	Y11	Z11	X12	Y12	Z12	X13	Y13	Z13	X14	Y14	Z14	X15	Y15	Z15	X16	Y16	Z16	X17	Y17	Z17	X18	Y18	Z18	X19	Y19	Z19	X20	Y20	Z20	X21	Y21	Z21
40	1.3666666666666607	0.47402332708489087	-0.011795703955906567	-0.16843720715202382	0.4815563524618799	-0.01640020571548262	-0.14722277592665967	0.47720055297410874	-0.02981670535360803	-0.11947670326254178	0.47738919922984235	-0.031255478954737015	-0.07489212809225576	0.5041934301968503	-0.017469977149175198	-0.10522863632650392	0.5221889821381795	-0.0164303229316074	-0.10698340965511877	0.5346951498792113	0.0020061190833082776	-0.11863258161126378	0.4939555841317237	0.014167361417282365	-0.12108779272245085	0.5021781847509537	-0.018148119053076894	-0.08659390145531898	0.5200536649607763	-0.015431304995592865	-0.08555172649625964	0.5387076073228404	0.005147248049271136	-0.09438140026897146	0.5015521514796515	0.029091052267628315	-0.10088634159367338	0.5013602229056229	-0.005892275570752448	-0.0718368602224051	0.5191249892638519	-0.0038099330338013937	-0.06958365677035183	0.5364510531565412	0.013691976900487735	-0.07328103930918672	0.5052761630291736	0.038657246980771554	-0.07957248980688914	0.5019581894128399	-0.00581060238983766	-0.054300951259720565	0.5187839767019022	-0.004594535795272803	-0.05140025063042275	0.5311927306600734	0.012326933971489207	-0.05210644121244268	0.5051677999370101	0.037005764186175405	-0.05591980863434798	0.46228308100186083	-0.023011742144276925	-0.051989820119430985
41	1.3999999999999937	0.47366938198650144	-0.012064789626355599	-0.168614437186816	0.4811324037033382	-0.016589903861844557	-0.14735822284818556	0.47680897588533644	-0.029897279560525458	-0.11955459495690712	0.47730079508783024	-0.031204893575699777	-0.07496829370350211	0.5049278432148733	-0.01768538114342877	-0.10502689824693323	0.5227552701450302	-0.015798066740323358	-0.10760000792079971	0.5341956684546192	0.0030670850798492078	-0.11965128031502381	0.4931633553189404	0.014340564328362504	-0.12135246765595409	0.5031268382695931	-0.018767741337921917	-0.08643725495204635	0.5208559945638057	-0.015071953761096046	-0.08630245405307979	0.5384056457109563	0.0062798319371664135	-0.09555018578084928	0.5006345778304234	0.02946113687156493	-0.10121776495564772	0.5023932218530467	-0.006786801920349417	-0.07183339838133451	0.5200446003940615	-0.003433128045563394	-0.07035633807675046	0.5362797035820346	0.015010534262154263	-0.07441006773655112	0.5043118178121639	0.03912319437640943	-0.08000959768279758	0.5027978984921746	-0.006488404014374116	-0.05493296899576661	0.5195488075581135	-0.004006738500382578	-0.05243329266845742	0.5310911077678173	0.013511405865764714	-0.053271112956999156	0.5043722663630008	0.037529356840422134	-0.05645309283801936	0.46228308100186094	-0.023011742144276925	-0.051989820119430985
42	1.4333333333333271	0.47345791046562846	-0.012764570379240947	-0.16891583816649425	0.48076324717725694	-0.01715453232679276	-0.1475766655108176	0.47633381324619384	-0.03020250058170082	-0.11966697831319284	0.4771281137579743	-0.031213092674945098	-0.07507731818533292	0.5067530988201003	-0.01826120105780127	-0.10537889531583922	0.5241931532002785	-0.015021787980600498	-0.10903275712653882	0.5338886285293676	0.004556232890498668	-0.12147095192778856	0.4924216528557852	0.014254792847736786	-0.12172384961934479	0.5056708955614284	-0.019899605320163327	-0.0871528855812389	0.5229450095544783	-0.014510455942413625	-0.08790258868208534	0.5386170252362552	0.008110535409682651	-0.09749884965803468	0.4997074219357476	0.029660677907645483	-0.10171572650169891	0.5049034610440752	-0.007972214098521557	-0.07291382576115513	0.5221827835862651	-0.0029109336221855298	-0.07201468593730576	0.5367231782537889	0.016853292953253773	-0.07627288388800624	0.5034452024902571	0.03938383147138824	-0.08070819640965043	0.5052054623138611	-0.007457133485981204	-0.05639243175408737	0.5216610280133708	-0.0033297453035386892	-0.054116684777694934	0.5318186280563719	0.015024717868906579	-0.05498205291771874	0.5039237067768789	0.03777014338229723	-0.05730636701561753	0.46228308100186094	-0.023011742144276925	-0.051989820119430985
43	1.4666666666666603	0.4734906483026724	-0.013879292592019588	-0.16929176444718075	0.4805606473549526	-0.01808945320213251	-0.14783740216260532	0.47584293318009946	-0.030735820866003682	-0.11979043159759462	0.47688912799550837	-0.03130082882218144	-0.07519809770018948	0.5098401918501436	-0.019061318727780385	-0.10661054421859384	0.5265549945630417	-0.01403676106182461	-0.11144471328166727	0.5337913914238073	0.006434327793714112	-0.12411668686679378	0.49190232949476215	0.01385724123804788	-0.1221563448806704	0.5099153053832399	-0.02094431340748959	-0.08889619927395065	0.5263711755958114	-0.013522084334910534	-0.09035045205155345	0.5394047164120463	0.010636509815188266	-0.10014323983044249	0.49900046367974055	0.029580925673269642	-0.10232346686908889	0.5091169552717114	-0.009106281452805343	-0.07505875357931657	0.5257140795932995	-0.0020901390858304447	-0.0745026865509043	0.537935362704524	0.019189373520074215	-0.07874562908768801	0.5029686063830967	0.039289642539554914	-0.08157864368391288	0.5093524344230775	-0.00832666743210142	-0.05838117242673635	0.5252674464785314	-0.0024238878989858437	-0.05617445879370997	0.5335430500572471	0.016854165944708677	-0.057000923800565984	0.5040546766194265	0.037576519224399085	-0.05838054604717757	0.46228308100186083	-0.023011742144276925	-0.051989820119430985
44	1.4999999999999936	0.47386416122828445	-0.01535847869690865	-0.1697172934712653	0.4805975584893129	-0.019347607196208205	-0.14811293707860118	0.4754114150767965	-0.031455769470974504	-0.11991158386935352	0.4766027010542652	-0.03145881660027394	-0.07531931067729825	0.514487992777894	-0.019867796586007014	-0.10879500071234238	0.5299026977727739	-0.012558661001047189	-0.11487475456603602	0.5337517381354451	0.008848519718114733	-0.12748139309276751	0.4916694404051998	0.013193119605012016	-0.12259869265491807	0.516117009504105	-0.021591338970367913	-0.0916496539802335	0.53122259948119	-0.011798206435968184	-0.09362846842526595	0.5405964292756907	0.014008521247155792	-0.10340362424360583	0.4985908346854747	0.02922381881098557	-0.10298809546418264	0.5153351336145837	-0.009933092027797241	-0.07825363486058468	0.5307879514406122	-0.0006599272551991442	-0.07778583539946948	0.5397792090047799	0.022222478262117762	-0.08175229278054175	0.5029311210452605	0.03884497156216937	-0.08254725455147938	0.5154396397855392	-0.008851435756989434	-0.060711301107384874	0.5304613568421699	-0.0009542356763105886	-0.05847920622672842	0.5361531074381481	0.01924176900962049	-0.05921227435386822	0.504739672741187	0.036960511559672504	-0.05956686423632229	0.4622830810018609	-0.023011742144276925	-0.051989820119430985
